<?xml version="1.0" encoding="UTF-8"?>
<svg version="1.1" xmlns="http://www.w3.org/2000/svg" width="352" height="352">
<path d="M0 0 C31.0699972 28.20689166 52.70636236 70.35406643 55.57373047 112.42871094 C57.97605869 167.41771784 41.81773666 213.75323964 4.64794922 254.54199219 C-22.38612303 282.60839178 -60.25428666 299.23887337 -98.42626953 304.42871094 C-99.36341797 304.56148438 -100.30056641 304.69425781 -101.26611328 304.83105469 C-146.58595116 310.05751308 -193.44601764 296.33140743 -229.08837891 268.11279297 C-246.60405133 254.06226676 -260.99453253 237.77668415 -272.42626953 218.42871094 C-272.79993652 217.79658691 -273.17360352 217.16446289 -273.55859375 216.51318359 C-297.10527551 175.97674254 -301.83340857 127.25962484 -290.10986328 82.24121094 C-281.99163173 52.77378173 -266.57569305 27.32900156 -245.42626953 5.42871094 C-244.61673828 4.56761719 -243.80720703 3.70652344 -242.97314453 2.81933594 C-182.90453639 -59.57450864 -77.04372963 -62.61207897 0 0 Z " fill="#22B376" transform="translate(296.42626953125,46.5712890625)"/>
<path d="M0 0 C0.64259766 0.21962402 1.28519531 0.43924805 1.94726562 0.66552734 C26.55286487 9.26288435 46.31509351 27.55141468 57.92724609 50.86132812 C69.79427146 76.53640387 69.73656112 105.17451561 60.375 131.50390625 C50.57929903 156.41058911 32.16254984 175.36297408 7.86767578 186.1953125 C-13.50174951 195.4023224 -39.43516933 196.11358331 -61.18041992 187.74072266 C-65.54834 185.99270453 -69.79193823 184.10403088 -74 182 C-74 216.98 -74 251.96 -74 288 C-91.45954824 282.54389117 -108.6754409 276.21637273 -124 266 C-124.30354321 263.51057815 -124.4087759 261.26746341 -124.38768005 258.77464294 C-124.39306559 258.02130442 -124.39845113 257.2679659 -124.40399987 256.49179894 C-124.41837039 253.95327209 -124.41115318 251.41526011 -124.40405273 248.87670898 C-124.40975225 247.06165139 -124.41671488 245.24659738 -124.42485046 243.43154907 C-124.44286141 238.48641763 -124.44159646 233.54146292 -124.43590808 228.59630847 C-124.43282195 224.46221131 -124.43890357 220.32814839 -124.44494683 216.19405609 C-124.45902178 206.42532179 -124.45741135 196.65667483 -124.44604492 186.88793945 C-124.43461193 176.84069213 -124.44855103 166.79371325 -124.4754414 156.74650139 C-124.49769156 148.10675736 -124.50421339 139.46709697 -124.49836498 130.82732636 C-124.49501018 125.67412506 -124.49730918 120.52109501 -124.51461601 115.36791801 C-124.53022745 110.50624791 -124.52597423 105.64496918 -124.50731087 100.78331375 C-124.50366121 99.01180273 -124.50662571 97.24026185 -124.51719666 95.46877861 C-124.60608432 79.32138886 -122.10195607 64.68152908 -115 50 C-114.55914062 49.07832031 -114.11828125 48.15664062 -113.6640625 47.20703125 C-109.99413756 40.01925008 -105.37968623 33.99403312 -100 28 C-99.55914062 27.50854492 -99.11828125 27.01708984 -98.6640625 26.51074219 C-74.00743712 -0.56627226 -35.1377231 -12.07391974 0 0 Z " fill="#FEFEFE" transform="translate(204,58)"/>
<path d="M0 0 C9.4257692 7.52622488 16.76177878 18.33008191 18.31787109 30.48242188 C18.47258344 33.07998711 18.51892832 35.6479552 18.5 38.25 C18.49427979 39.1687793 18.48855957 40.08755859 18.48266602 41.03417969 C18.13871782 54.21307023 13.05955916 63.87684121 3.83203125 73.1875 C-6.46916889 82.83268567 -16.99807881 85.55507187 -30.83984375 85.2421875 C-42.8065596 84.70056155 -52.55914415 78.89146619 -60.8125 70.375 C-71.0051063 58.38908057 -72.88125385 45.2697258 -72 30 C-69.93964409 18.04344643 -62.95151137 7.29834545 -53.35546875 -0.015625 C-36.3012352 -11.36921265 -17.38304779 -10.69549844 0 0 Z " fill="#22B376" transform="translate(202,114)"/>
<path d="M0 0 C6.38288763 7.55469206 10.24654231 16.56481831 13 26 C13.37125 27.134375 13.7425 28.26875 14.125 29.4375 C20.45019349 55.19007349 16.58690367 84.98403532 2.86328125 107.66796875 C-11.25188974 128.87873737 -30.40862105 144.1372896 -55 151 C-56.09570312 151.3196875 -57.19140625 151.639375 -58.3203125 151.96875 C-72.85523358 155.67979368 -87.56692706 154.91264324 -102.125 151.8125 C-103.04788818 151.6165625 -103.97077637 151.420625 -104.92163086 151.21875 C-111.95743644 149.56639692 -117.1806789 147.09969141 -124 144 C-124 177.33 -124 210.66 -124 245 C-125.32 245 -126.64 245 -128 245 C-128 210.02 -128 175.04 -128 139 C-123.8994821 140.3668393 -120.03756149 141.79529313 -116.0625 143.4375 C-92.56388781 152.40198185 -65.97016737 151.09735781 -43 141 C-28.02253404 133.78800631 -15.85130705 123.38714962 -6 110 C-5.46117187 109.31035156 -4.92234375 108.62070313 -4.3671875 107.91015625 C9.44271621 89.07518287 14.5470011 61.34329512 11.46875 38.5703125 C9.62693496 26.81519886 6.73102904 15.5002394 0.953125 5.0234375 C0 3 0 3 0 0 Z " fill="#118557" transform="translate(258,101)"/>
<path d="M0 0 C-3.51768576 1.17256192 -5.316629 0.4473587 -8.80175781 -0.49755859 C-12.32536727 -1.30293268 -15.77341026 -1.34133249 -19.375 -1.3125 C-20.11814453 -1.30686035 -20.86128906 -1.3012207 -21.62695312 -1.29541016 C-31.76088935 -1.0723222 -38.94550585 1.88814822 -47 8 C-48.25490234 8.92039062 -48.25490234 8.92039062 -49.53515625 9.859375 C-56.51286608 15.91925612 -61.5565426 25.89608885 -63 35 C-63.64890758 47.09214319 -62.67838949 57.69050193 -58 69 C-61.13220359 66.14829226 -62.95716773 63.54663222 -64.6875 59.6875 C-65.10386719 58.78386719 -65.52023438 57.88023437 -65.94921875 56.94921875 C-70.20151163 45.01434468 -69.09780752 31.11141294 -63.96875 19.70703125 C-58.10062551 8.18885447 -48.75865024 -0.03593072 -36.8125 -4.9375 C-24.27089937 -8.60489946 -11.20791364 -6.00423945 0 0 Z " fill="#15865A" transform="translate(198,112)"/>
<path d="M0 0 C5.94241726 7.0333578 13 18.40701083 13 28 C12.01 28.33 11.02 28.66 10 29 C9.69707031 27.96101563 9.39414062 26.92203125 9.08203125 25.8515625 C6.89712624 18.52487701 4.6711917 11.62757655 0.91796875 4.91796875 C0 3 0 3 0 0 Z " fill="#198A5D" transform="translate(258,101)"/>
</svg>
