<svg xmlns="http://www.w3.org/2000/svg" xmlns:xlink="http://www.w3.org/1999/xlink" id="Layer_1" x="0px" y="0px" viewBox="0 0 81 81" style="enable-background:new 0 0 81 81;" xml:space="preserve"><style type="text/css">	.st0{display:none;fill:#DAECFF;}	.st1{fill:#DAECFF;}	.st2{fill:#1D88FA;}</style><path class="st0" d="M30.5,21.8h20.2c4.8,0,8.7,3.9,8.7,8.7v20.2c0,4.8-3.9,8.7-8.7,8.7H30.5c-4.8,0-8.7-3.9-8.7-8.7V30.5 C21.8,25.6,25.6,21.8,30.5,21.8z"></path><path class="st1" d="M68,81H13C5.8,81,0,75.2,0,68V13C0,5.8,5.8,0,13,0H68c7.1,0,13,5.8,13,13V68C81,75.2,75.2,81,68,81z"></path><path class="st2" d="M53.9,17c0-1.9-1.4-3.3-3.3-3.3c-1.9,0-3.3,1.4-3.3,3.3v10h6.7V17H53.9z M59,30.5H22c-0.9,0-1.6,0.7-1.6,1.6 v3.3c0,0.9,0.7,1.6,1.6,1.6h1.6v3.5c0,7.9,5.6,14.9,13.5,16.5v10.5h6.7V57c7.9-1.6,13.5-8.4,13.5-16.5V37H59c0.9,0,1.6-0.7,1.6-1.6 v-3.3C60.6,31.2,59.9,30.5,59,30.5z M33.9,17c0-1.9-1.4-3.3-3.3-3.3c-1.9,0-3.3,1.4-3.3,3.3v10h6.7V17H33.9z M50.6,13.5 c-1.9,0-3.3,1.4-3.3,3.3V27h6.7V17C54.1,15.2,52.5,13.5,50.6,13.5z M30.6,13.5c-1.9,0-3.3,1.4-3.3,3.3V27h6.7V17 C34.1,15.2,32.5,13.5,30.6,13.5z"></path></svg>