<svg xmlns="http://www.w3.org/2000/svg" xmlns:xlink="http://www.w3.org/1999/xlink" id="Layer_1" x="0px" y="0px" viewBox="0 0 81 81" style="enable-background:new 0 0 81 81;" xml:space="preserve"><style type="text/css">	.st0{display:none;fill:#DAECFF;}	.st1{fill:#FFF;}	.st2{fill:#1C252E;stroke:#1C252E;stroke-width:4;}</style><path class="st0" d="M30.5,21.8h20.2c4.8,0,8.7,3.9,8.7,8.7v20.2c0,4.8-3.9,8.7-8.7,8.7H30.5c-4.8,0-8.7-3.9-8.7-8.7V30.5 C21.8,25.6,25.6,21.8,30.5,21.8z"></path><path class="st1" d="M68,81H13C5.8,81,0,75.2,0,68V13C0,5.8,5.8,0,13,0h55c7.1,0,13,5.8,13,13v55C81,75.2,75.2,81,68,81z"></path><path class="st2" d="M40.5,13.5c1.7,0,3,1.5,3,3.4v3.8c0.1,0,0.3,0,0.4,0.1c1,0.2,4,0.7,5.2,1.1c1.5,0.5,2.6,2.3,2.2,4.1 c-0.4,1.8-2,2.9-3.6,2.4c-0.9-0.3-3.5-0.7-4.6-0.9c-3-0.5-5.6-0.3-7.4,0.5c-1.7,0.7-2.4,1.8-2.6,3c-0.2,1.1,0,1.8,0.1,2.2 c0.2,0.4,0.5,0.9,1.2,1.4c1.5,1.1,3.8,1.9,6.9,2.8l0.3,0.1c2.7,0.8,5.9,1.8,8.3,3.6c1.3,1,2.6,2.3,3.3,4.2c0.8,1.9,0.9,4,0.6,6.1 c-0.7,4.1-3.2,6.8-6.2,8.2c-1.3,0.6-2.7,1-4.2,1.2v3.5c0,1.9-1.3,3.4-3,3.4s-3-1.5-3-3.4v-3.7c0,0-0.1-0.1-0.1,0l0,0 c-2.3-0.4-6-1.5-8.6-2.8c-1.5-0.8-2.2-2.8-1.5-4.5s2.4-2.5,3.9-1.7c2,1,5.3,1.9,7.1,2.3c3,0.5,5.5,0.2,7.1-0.5s2.3-1.8,2.5-3 c0.2-1.1,0-1.8-0.1-2.2c-0.2-0.4-0.5-0.9-1.2-1.4c-1.5-1.1-3.9-1.9-6.9-2.8l-0.3-0.1c-2.7-0.8-5.9-1.8-8.3-3.6 c-1.3-1-2.6-2.3-3.3-4.2c-0.8-1.9-1-4-0.6-6.2c0.7-4.1,3.3-6.7,6.4-8c1.2-0.5,2.5-0.9,3.9-1.1v-3.7C37.5,15,38.8,13.5,40.5,13.5z"></path></svg>