<svg xmlns="http://www.w3.org/2000/svg" xmlns:xlink="http://www.w3.org/1999/xlink" id="Layer_1" x="0px" y="0px" viewBox="0 0 81 81" style="enable-background:new 0 0 81 81;" xml:space="preserve"><style type="text/css">	.st0{display:none;fill:#DAECFF;}	.st1{fill:#FFF;}	.st2{fill:#1C252E;}</style><path class="st0" d="M30.5,21.8h20.2c4.8,0,8.7,3.9,8.7,8.7v20.2c0,4.8-3.9,8.7-8.7,8.7H30.5c-4.8,0-8.7-3.9-8.7-8.7V30.5 C21.8,25.6,25.6,21.8,30.5,21.8z"></path><path class="st1" d="M68,81H13C5.8,81,0,75.2,0,68V13C0,5.8,5.8,0,13,0h55c7.1,0,13,5.8,13,13v55C81,75.2,75.2,81,68,81z"></path><path class="st2" d="M40.6,51.5c-1.8,0-3.8-0.5-5.3-1.8L11.2,31v26c0,3,2.5,5.5,5.5,5.5h47.6c3,0,5.5-2.5,5.5-5.5V31L45.9,49.5 C44.3,50.7,42.4,51.5,40.6,51.5z M13.2,27.8l24.3,18.9c1.8,1.4,4.4,1.4,6.3,0L68,27.8c1-0.9,1.8-2.3,1.8-3.8c0-3-2.5-5.5-5.5-5.5 H16.8c-3,0-5.5,2.5-5.5,5.5C11.2,25.5,12,26.9,13.2,27.8z"></path></svg>