<svg xmlns="http://www.w3.org/2000/svg" xmlns:xlink="http://www.w3.org/1999/xlink" id="Layer_1" x="0px" y="0px" viewBox="0 0 81 81" style="enable-background:new 0 0 81 81;" xml:space="preserve"><style type="text/css">	.st0{display:none;fill:#DAECFF;}	.st1{fill:#FFF;}	.st2{fill:#1C252E;}</style><path class="st0" d="M30.5,21.8h20.2c4.8,0,8.7,3.9,8.7,8.7v20.2c0,4.8-3.9,8.7-8.7,8.7H30.5c-4.8,0-8.7-3.9-8.7-8.7V30.5 C21.8,25.6,25.6,21.8,30.5,21.8z"></path><path class="st1" d="M68.1,81h-55c-7.2,0-13-5.8-13-13V13c0-7.2,5.8-13,13-13h55c7.1,0,13,5.8,13,13v55C81.1,75.2,75.3,81,68.1,81z"></path><path class="st2" d="M47.3,13.5V27h13.5L47.3,13.5z M43.9,27V13.5H25.4c-2.8,0-5.1,2.3-5.1,5.1v43.9c0,2.8,2.3,5.1,5.1,5.1h30.4 c2.8,0,5.1-2.3,5.1-5.1V30.3H47.4C45.5,30.3,43.9,28.8,43.9,27z M49,57.4H32.1c-0.9,0-1.7-0.8-1.7-1.7s0.8-1.7,1.7-1.7H49 c0.9,0,1.7,0.8,1.7,1.7C50.7,56.6,49.9,57.4,49,57.4z M49,50.6H32.1c-0.9,0-1.7-0.8-1.7-1.7s0.8-1.7,1.7-1.7H49 c0.9,0,1.7,0.8,1.7,1.7C50.7,49.9,49.9,50.6,49,50.6z M50.7,42.2c0,0.9-0.8,1.7-1.7,1.7H32.1c-0.9,0-1.7-0.8-1.7-1.7 s0.8-1.7,1.7-1.7H49C49.9,40.5,50.7,41.2,50.7,42.2z"></path></svg>