<svg xmlns="http://www.w3.org/2000/svg" width="512" height="512"><path d="M256 0C115.041 0 0 115.049 0 256c0 140.958 115.049 256 256 256 140.958 0 256-115.049 256-256C512 115.041 396.951 0 256 0zm181.141 121h-91.266C338.989 92.977 328.124 61.118 312 37.026 362.738 50.009 406.658 80.204 437.141 121zM256 30c10.463 0 22.161 9.441 32.938 26.583 10.16 16.161 19.028 38.199 25.987 64.417h-117.85c6.96-26.219 15.827-48.256 25.988-64.417C233.84 39.441 245.537 30 256 30zm-56 7.026c-16.123 24.09-26.99 55.955-33.875 83.974H74.859C105.342 80.204 149.262 50.009 200 37.026zM55.924 151h400.151C472.617 182.393 482 218.118 482 256s-9.383 73.607-25.924 105H55.925C39.383 329.607 30 293.882 30 256s9.383-73.607 25.924-105zM256 482c-10.463 0-22.16-9.44-32.938-26.583-10.161-16.161-19.028-38.199-25.988-64.417h117.851c-6.96 26.219-15.827 48.256-25.987 64.417C278.161 472.56 266.463 482 256 482zM74.859 391h91.266c6.891 28.046 17.753 59.881 33.875 83.974-50.738-12.983-94.658-43.178-125.141-83.974zM312 474.974c16.119-24.086 26.986-55.938 33.875-83.974h91.266c-30.483 40.796-74.403 70.991-125.141 83.974z"/><path d="M136 331c8.284 0 15-6.716 15-15V196c0-8.284-6.716-15-15-15s-15 6.716-15 15v120c0 8.284 6.716 15 15 15zM226.529 271c8.271 0 15 6.729 15 15s-6.729 15-15 15c-4.006 0-7.773-1.56-10.606-4.393-5.858-5.858-15.355-5.858-21.213 0s-5.858 15.355 0 21.213c8.5 8.5 19.8 13.18 31.82 13.18 24.813 0 45-20.187 45-45s-20.187-45-45-45c-8.271 0-15-6.729-15-15s6.729-15 15-15a14.9 14.9 0 0 1 10.606 4.393c5.858 5.858 15.355 5.858 21.213 0s5.858-15.355 0-21.213c-8.5-8.5-19.8-13.18-31.82-13.18-24.813 0-45 20.187-45 45s20.187 45 45 45zM346.529 331c24.813 0 45-20.187 45-45v-60c0-24.813-20.187-45-45-45s-45 20.187-45 45v60c0 24.813 20.187 45 45 45zm-15-105c0-8.271 6.729-15 15-15s15 6.729 15 15v60c0 8.271-6.729 15-15 15s-15-6.729-15-15z"/></svg>